<svg width="48" height="48" viewBox="0 0 48 48" fill="none" xmlns="http://www.w3.org/2000/svg">
<circle cx="24" cy="24" r="23.5" fill="white" stroke="#D4FBEF"/>
<path d="M26.0417 12.3333C26.7378 12.3333 27.4055 12.6098 27.8978 13.1021C28.3901 13.5944 28.6667 14.2621 28.6667 14.9583V23.0363C28.0587 23.1803 27.4709 23.399 26.9167 23.6873V14.9583C26.9167 14.7262 26.8245 14.5036 26.6604 14.3395C26.4963 14.1754 26.2737 14.0833 26.0417 14.0833H17.2917C17.0596 14.0833 16.837 14.1754 16.6729 14.3395C16.5088 14.5036 16.4167 14.7262 16.4167 14.9583V33.0416C16.4167 33.5246 16.8087 33.9166 17.2917 33.9166L23.6885 33.9178C24.0219 34.5579 24.445 35.1472 24.945 35.6678L17.2917 35.6666C16.5955 35.6666 15.9278 35.39 15.4355 34.8977C14.9432 34.4055 14.6667 33.7378 14.6667 33.0416V14.9583C14.6667 14.2621 14.9432 13.5944 15.4355 13.1021C15.9278 12.6098 16.5955 12.3333 17.2917 12.3333H26.0417ZM20.2072 30.4213L22.8333 30.4154C22.8333 31.0186 22.9033 31.6054 23.0363 32.1654L20.2095 32.1713C19.9774 32.1716 19.7547 32.0797 19.5904 31.9158C19.4261 31.7519 19.3336 31.5295 19.3333 31.2974C19.333 31.0654 19.4249 30.8427 19.5888 30.6784C19.7527 30.514 19.9751 30.4216 20.2072 30.4213ZM30.4167 23.9999C32.1185 23.9999 33.7506 24.676 34.9539 25.8793C36.1573 27.0827 36.8333 28.7148 36.8333 30.4166C36.8333 32.1184 36.1573 33.7505 34.9539 34.9539C33.7506 36.1572 32.1185 36.8333 30.4167 36.8333C28.7149 36.8333 27.0827 36.1572 25.8794 34.9539C24.676 33.7505 24 32.1184 24 30.4166C24 28.7148 24.676 27.0827 25.8794 25.8793C27.0827 24.676 28.7149 23.9999 30.4167 23.9999ZM33.9132 30.9999C34.0679 30.9999 34.2162 30.9385 34.3256 30.8291C34.435 30.7197 34.4965 30.5713 34.4965 30.4166C34.4965 30.2619 34.435 30.1135 34.3256 30.0041C34.2162 29.8947 34.0679 29.8333 33.9132 29.8333H26.912C26.7573 29.8333 26.6089 29.8947 26.4995 30.0041C26.3901 30.1135 26.3287 30.2619 26.3287 30.4166C26.3287 30.5713 26.3901 30.7197 26.4995 30.8291C26.6089 30.9385 26.7573 30.9999 26.912 30.9999H33.9132Z" fill="#55B498"/>
</svg>
