<svg width="32" height="34" viewBox="0 0 32 34" fill="none" xmlns="http://www.w3.org/2000/svg">
<path d="M22.8405 13.6777L22.6585 13.849L22.8405 13.6777C22.645 13.4699 22.3763 13.35 22.0928 13.35H4C3.71646 13.35 3.44785 13.4699 3.25226 13.6777C3.05717 13.885 2.95 14.163 2.95 14.45C2.95 14.7371 3.05717 15.0151 3.25226 15.2224C3.44785 15.4302 3.71646 15.55 4 15.55H22.0928C22.3763 15.55 22.645 15.4302 22.8405 15.2224C23.0356 15.0151 23.1428 14.7371 23.1428 14.45C23.1428 14.163 23.0356 13.885 22.8405 13.6777ZM3.25226 6.87767C3.05717 7.08496 2.95 7.36304 2.95 7.65005C2.95 7.93706 3.05717 8.21514 3.25226 8.42243C3.44785 8.63024 3.71646 8.75005 4 8.75005H28C28.2835 8.75005 28.5522 8.63024 28.7477 8.42243C28.9428 8.21514 29.05 7.93706 29.05 7.65005C29.05 7.36304 28.9428 7.08496 28.7477 6.87767C28.5522 6.66986 28.2835 6.55005 28 6.55005H4C3.71646 6.55005 3.44785 6.66986 3.25226 6.87767ZM3.25226 20.4777C3.05717 20.685 2.95 20.963 2.95 21.25C2.95 21.5371 3.05717 21.8151 3.25226 22.0224C3.44785 22.2302 3.71646 22.35 4 22.35H28C28.2835 22.35 28.5522 22.2302 28.7477 22.0224C28.9428 21.8151 29.05 21.5371 29.05 21.25C29.05 20.963 28.9428 20.685 28.7477 20.4777C28.5522 20.2699 28.2835 20.15 28 20.15H4C3.71646 20.15 3.44785 20.2699 3.25226 20.4777ZM3.25227 27.2777C3.05717 27.485 2.95 27.763 2.95 28.05C2.95 28.3371 3.05717 28.6151 3.25226 28.8224C3.44785 29.0302 3.71646 29.15 4 29.15H22.0928C22.3763 29.15 22.645 29.0302 22.8405 28.8224C23.0356 28.6151 23.1428 28.3371 23.1428 28.05C23.1428 27.763 23.0356 27.485 22.8405 27.2777C22.645 27.0699 22.3763 26.9501 22.0928 26.9501H4C3.71646 26.9501 3.44785 27.0699 3.25227 27.2777Z" fill="black" stroke="black" stroke-width="0.5"/>
</svg>
